# xmcd
# Track frame offsets:
# 180
# 13710
# 27820
# 39775
# 58960
# 70691
#
# Disc length: 1193 seconds
# Revision: 0
# Processed by: cddbd v1.4PL0 Copyright (c) Steve Scherf et al.
# Submitted via: VisiTrax 2.9.5.180 - For more info visit www.synapsa.com
#
DISCID=4304a706
DTITLE=Rob Huggins - Texas two step
DYEAR=1900
DGENRE=
TTITLE0=Bar Billy women
TTITLE1=My memories of you
TTITLE2=Right train wrong track
TTITLE3=Diamonds and gold
TTITLE4=She's a Texas two step
TTITLE5=You gave me a mountain
EXTD=
EXTT0=
EXTT1=
EXTT2=
EXTT3=
EXTT4=
EXTT5=
PLAYORDER=
